<svg xmlns="http://www.w3.org/2000/svg" width="30" height="30" viewBox="0 0 30 30">
  <path id="setting" d="M19.635,3.969a2.747,2.747,0,0,0-5.268,0l-.188.636A2.745,2.745,0,0,1,10.232,6.24L9.65,5.922A2.747,2.747,0,0,0,5.924,9.649l.318.582a2.745,2.745,0,0,1-1.635,3.948l-.638.188a2.747,2.747,0,0,0,0,5.268l.636.188A2.745,2.745,0,0,1,6.24,23.769l-.318.582a2.747,2.747,0,0,0,3.726,3.726l.582-.318a2.745,2.745,0,0,1,3.948,1.635l.188.638a2.747,2.747,0,0,0,5.268,0l.188-.638a2.744,2.744,0,0,1,3.947-1.635l.582.32a2.747,2.747,0,0,0,3.726-3.726l-.318-.584a2.745,2.745,0,0,1,1.635-3.945l.638-.189a2.747,2.747,0,0,0,0-5.268l-.638-.188a2.745,2.745,0,0,1-1.635-3.947l.32-.582a2.747,2.747,0,0,0-3.726-3.726l-.584.318a2.745,2.745,0,0,1-3.945-1.635l-.189-.638ZM17,22.494A5.5,5.5,0,1,1,22.223,17,5.495,5.495,0,0,1,17,22.494v0Z" transform="translate(-2 -2.001)" fill="#2a3242"/>
</svg>
